<svg width="20" height="20" viewBox="0 0 20 20" fill="none" xmlns="http://www.w3.org/2000/svg">
<path fill-rule="evenodd" clip-rule="evenodd" d="M8.33301 10.833C11.5547 10.833 14.167 12.326 14.167 14.167C14.1667 16.0078 11.5545 17.5 8.33301 17.5C5.11169 17.4999 2.50031 16.0077 2.5 14.167C2.5 12.3261 5.1115 10.8331 8.33301 10.833ZM13.2393 10.8604C15.6499 11.039 17.4997 12.078 17.5 13.333C17.5 14.2311 16.5529 15.0192 15.1309 15.46C15.3168 15.05 15.4169 14.6159 15.417 14.167C15.417 12.8678 14.5814 11.6944 13.2393 10.8604ZM8.33301 2.5C10.1738 2.5 11.6668 3.99221 11.667 5.83301C11.667 7.67396 10.174 9.16699 8.33301 9.16699C6.49221 9.16682 5 7.67385 5 5.83301C5.00018 3.99232 6.49232 2.50018 8.33301 2.5ZM12.6055 4.16895C13.9372 4.22424 15 5.32163 15 6.66699C14.9999 8.04757 13.8806 9.16696 12.5 9.16699C12.1958 9.16699 11.9044 9.11216 11.6348 9.0127C12.4286 8.1886 12.917 7.0676 12.917 5.83301C12.9169 5.24605 12.8066 4.68474 12.6055 4.16895Z" fill="#947550"/>
</svg>
