<svg width="17" height="17" viewBox="0 0 17 17" fill="none" xmlns="http://www.w3.org/2000/svg">
<path d="M2.25 7.5H14.25C14.8467 7.5 15.419 7.26295 15.841 6.84099C16.2629 6.41903 16.5 5.84674 16.5 5.25V2.25C16.5 1.65326 16.2629 1.08097 15.841 0.65901C15.419 0.237053 14.8467 0 14.25 0H2.25C1.65326 0 1.08097 0.237053 0.65901 0.65901C0.237053 1.08097 0 1.65326 0 2.25V5.25C0 5.84674 0.237053 6.41903 0.65901 6.84099C1.08097 7.26295 1.65326 7.5 2.25 7.5ZM1.5 2.25C1.5 2.05109 1.57902 1.86032 1.71967 1.71967C1.86032 1.57902 2.05109 1.5 2.25 1.5H14.25C14.4489 1.5 14.6397 1.57902 14.7803 1.71967C14.921 1.86032 15 2.05109 15 2.25V5.25C15 5.44891 14.921 5.63968 14.7803 5.78033C14.6397 5.92098 14.4489 6 14.25 6H2.25C2.05109 6 1.86032 5.92098 1.71967 5.78033C1.57902 5.63968 1.5 5.44891 1.5 5.25V2.25ZM2.25 16.5H14.25C14.8467 16.5 15.419 16.2629 15.841 15.841C16.2629 15.419 16.5 14.8467 16.5 14.25V11.25C16.5 10.6533 16.2629 10.081 15.841 9.65901C15.419 9.23705 14.8467 9 14.25 9H2.25C1.65326 9 1.08097 9.23705 0.65901 9.65901C0.237053 10.081 0 10.6533 0 11.25V14.25C0 14.8467 0.237053 15.419 0.65901 15.841C1.08097 16.2629 1.65326 16.5 2.25 16.5ZM1.5 11.25C1.5 11.0511 1.57902 10.8603 1.71967 10.7197C1.86032 10.579 2.05109 10.5 2.25 10.5H14.25C14.4489 10.5 14.6397 10.579 14.7803 10.7197C14.921 10.8603 15 11.0511 15 11.25V14.25C15 14.4489 14.921 14.6397 14.7803 14.7803C14.6397 14.921 14.4489 15 14.25 15H2.25C2.05109 15 1.86032 14.921 1.71967 14.7803C1.57902 14.6397 1.5 14.4489 1.5 14.25V11.25Z" fill="#3D3936"/>
</svg>
