<svg width="40" height="40" viewBox="0 0 40 40" fill="none" xmlns="http://www.w3.org/2000/svg">
<rect width="40" height="40" rx="20" fill="#F7F7F7"/>
<path d="M14 27C13.4477 27 13 26.5523 13 26V14C13 13.4477 13.4477 13 14 13H26C26.5523 13 27 13.4477 27 14V15.25C27 15.8023 27.4477 16.25 28 16.25C28.5523 16.25 29 15.8023 29 15.25V14C29 12.3431 27.6569 11 26 11H14C12.3431 11 11 12.3431 11 14V26C11 27.6569 12.3431 29 14 29H17.7143C18.2666 29 18.7143 28.5523 18.7143 28C18.7143 27.4477 18.2666 27 17.7143 27H14Z" fill="#3D3936"/>
<path d="M25 16C25 16.5523 24.5523 17 24 17H16C15.4477 17 15 16.5523 15 16C15 15.4477 15.4477 15 16 15H24C24.5523 15 25 15.4477 25 16ZM19 21C19.5523 21 20 20.5523 20 20C20 19.4477 19.5523 19 19 19H16C15.4477 19 15 19.4477 15 20C15 20.5523 15.4477 21 16 21H19Z" fill="#3D3936"/>
<path d="M29.2822 16.9746C29.8092 16.9792 30.3139 17.1908 30.6865 17.5635C31.0592 17.9361 31.2708 18.4408 31.2754 18.9678C31.2798 19.4945 31.0769 20.0019 30.7109 20.3809L23.5967 27.498C23.5293 27.5657 23.4487 27.6181 23.3604 27.6523L23.2695 27.6807L20.8154 28.2598C20.7635 28.2722 20.7096 28.2778 20.6562 28.2764C20.5535 28.2746 20.4524 28.2507 20.3604 28.2051C20.2682 28.1594 20.1877 28.0934 20.124 28.0127C20.0603 27.9319 20.015 27.8376 19.9922 27.7373C19.9694 27.6371 19.9688 27.5329 19.9912 27.4326H19.9922L20.5723 24.9795C20.6017 24.856 20.6651 24.7431 20.7549 24.6533L27.8691 17.5391L28.0166 17.4092C28.3748 17.1253 28.8213 16.9707 29.2822 16.9746ZM29.2734 18.373C29.1169 18.3644 28.9616 18.4124 28.8389 18.5098L25.3477 22.001L21.8604 25.4854L21.5352 27.0762L22.7588 26.3887L29.7393 19.4102C29.8366 19.2874 29.8856 19.1331 29.877 18.9766C29.8681 18.8193 29.8018 18.6709 29.6904 18.5596C29.5791 18.4482 29.4307 18.3819 29.2734 18.373Z" fill="#3D3936" stroke="#3D3936" stroke-width="0.05"/>
</svg>
