<svg width="15" height="15" viewBox="0 0 15 15" fill="none" xmlns="http://www.w3.org/2000/svg">
<path fill-rule="evenodd" clip-rule="evenodd" d="M5.83301 8.33301C9.05467 8.33301 11.667 9.82604 11.667 11.667C11.6667 13.5078 9.05448 15 5.83301 15C2.61169 14.9999 0.000307977 13.5077 0 11.667C0 9.82611 2.6115 8.33311 5.83301 8.33301ZM10.7393 8.36035C13.1499 8.539 14.9997 9.57802 15 10.833C15 11.7311 14.0529 12.5192 12.6309 12.96C12.8168 12.55 12.9169 12.1159 12.917 11.667C12.917 10.3678 12.0814 9.19439 10.7393 8.36035ZM5.83301 0C7.67385 0 9.16682 1.49221 9.16699 3.33301C9.16699 5.17396 7.67396 6.66699 5.83301 6.66699C3.99221 6.66682 2.5 5.17385 2.5 3.33301C2.50018 1.49232 3.99232 0.000176013 5.83301 0ZM10.1055 1.66895C11.4372 1.72424 12.5 2.82163 12.5 4.16699C12.4999 5.54757 11.3806 6.66696 10 6.66699C9.69583 6.66699 9.40439 6.61216 9.13477 6.5127C9.92856 5.6886 10.417 4.5676 10.417 3.33301C10.4169 2.74605 10.3066 2.18474 10.1055 1.66895Z" fill="#947550"/>
</svg>
