<svg width="20" height="20" viewBox="0 0 20 20" fill="none" xmlns="http://www.w3.org/2000/svg">
<path d="M15.8334 9.99999H10.0001V4.16666C10.0001 3.66666 9.66675 3.33332 9.16675 3.33332C5.00008 3.33332 1.66675 6.66666 1.66675 10.8333C1.66675 15 5.00008 18.3333 9.16675 18.3333C13.3334 18.3333 16.6667 15 16.6667 10.8333C16.6667 10.3333 16.3334 9.99999 15.8334 9.99999ZM10.0001 16.5833C6.83341 17.0833 3.83341 14.8333 3.41675 11.6667C2.91675 8.49999 5.16675 5.49999 8.33341 5.08332V10.8333C8.33341 11.3333 8.66675 11.6667 9.16675 11.6667H14.9167C14.5834 14.25 12.5834 16.25 10.0001 16.5833ZM12.5001 1.66666C12.0001 1.66666 11.6667 1.99999 11.6667 2.49999V7.49999C11.6667 7.99999 12.0001 8.33332 12.5001 8.33332H17.5001C18.0001 8.33332 18.3334 7.99999 18.3334 7.49999C18.3334 4.24999 15.7501 1.66666 12.5001 1.66666ZM13.3334 6.66666V3.41666C15.0001 3.74999 16.2501 4.99999 16.5834 6.66666H13.3334Z" fill="white"/>
</svg>
